<svg width="1080" height="1080" viewBox="0 0 1080 1080" fill="none" xmlns="http://www.w3.org/2000/svg">
<rect x="161.641" y="404.027" width="612.051" height="578.667" rx="139.103" fill="#DEE8EC"/>
<path fill-rule="evenodd" clip-rule="evenodd" d="M161.641 576.514H156.077C128.42 576.514 106 598.934 106 626.591V760.129C106 787.786 128.42 810.206 156.077 810.206H161.641V576.514Z" fill="#D2DFE6"/>
<path fill-rule="evenodd" clip-rule="evenodd" d="M773.692 576.514H779.256C806.913 576.514 829.333 598.934 829.333 626.591V760.129C829.333 787.786 806.913 810.206 779.256 810.206H773.692V576.514Z" fill="#D2DFE6"/>
<circle cx="467.667" cy="693.359" r="133.538" fill="white" stroke="#2CC3D5" stroke-width="33.3846"/>
<circle cx="467.667" cy="693.36" r="50.0769" fill="#202C44"/>
<circle opacity="0.4" cx="478.795" cy="682.232" r="22.2564" fill="white"/>
<path d="M467.667 404.026V312.219" stroke="#8CA0B3" stroke-width="38.9487"/>
<circle cx="467.667" cy="259.36" r="66.7692" fill="#F9B42F"/>
<path opacity="0.3" d="M462.103 217.041C483.183 212.757 503.745 226.372 508.03 247.451" stroke="white" stroke-width="16.6923" stroke-linecap="round"/>
<g filter="url(#filter0_d)">
<path d="M969.877 186.157C961.384 143.176 930.882 113.136 886.168 103.777C867.153 99.9242 847.799 97.9888 828.397 98C802.574 98 766.179 101.408 739.72 117.815C706.329 138.844 688.767 178.474 690.327 230.178C691.251 259.814 698.357 301.409 727.126 331.449C749.368 354.558 790.673 366.516 824.296 368.769V390.491C824.296 395.843 826.418 400.977 830.197 404.768C833.977 408.558 839.105 410.695 844.457 410.71C845.053 410.767 845.653 410.767 846.248 410.71C850.496 410.402 854.538 408.765 857.802 406.031C870.743 394.939 887.727 380.208 904.423 364.61L911.644 357.966C925.252 346.342 937.57 333.288 948.386 319.029C971.61 285.464 979.755 235.84 969.877 186.157Z" fill="white"/>
</g>
<path d="M834.655 169.583C821.389 169.573 808.418 173.498 797.382 180.861C786.347 188.224 777.743 198.694 772.659 210.948C767.575 223.201 766.24 236.687 768.822 249.7C771.404 262.713 777.787 274.667 787.164 284.052C796.541 293.436 808.491 299.828 821.501 302.42C834.512 305.012 847.999 303.687 860.257 298.613C872.514 293.538 882.991 284.942 890.363 273.912C897.734 262.883 901.669 249.914 901.669 236.648C901.649 218.876 894.583 201.838 882.022 189.266C869.46 176.695 852.427 169.617 834.655 169.583ZM869.651 226.711L832.088 262.169C829.888 264.198 827.005 265.324 824.013 265.324C821.021 265.324 818.138 264.198 815.938 262.169L799.223 246.764C797.973 245.606 797.235 244 797.17 242.298C797.105 240.596 797.719 238.937 798.876 237.688C800.034 236.438 801.641 235.7 803.343 235.635C805.045 235.57 806.703 236.183 807.953 237.341L823.897 252.053L860.87 217.263C862.125 216.19 863.744 215.641 865.392 215.731C867.041 215.82 868.591 216.542 869.721 217.745C870.852 218.948 871.475 220.54 871.462 222.191C871.449 223.841 870.801 225.424 869.651 226.609V226.711Z" fill="#4DCB7B"/>
<defs>
<filter id="filter0_d" x="623.462" y="42.359" width="417.308" height="446.292" filterUnits="userSpaceOnUse" color-interpolation-filters="sRGB">
<feFlood flood-opacity="0" result="BackgroundImageFix"/>
<feColorMatrix in="SourceAlpha" type="matrix" values="0 0 0 0 0 0 0 0 0 0 0 0 0 0 0 0 0 0 127 0"/>
<feOffset dy="11.1282"/>
<feGaussianBlur stdDeviation="33.3846"/>
<feColorMatrix type="matrix" values="0 0 0 0 0.374547 0 0 0 0 0.481553 0 0 0 0 0.601935 0 0 0 0.15 0"/>
<feBlend mode="normal" in2="BackgroundImageFix" result="effect1_dropShadow"/>
<feBlend mode="normal" in="SourceGraphic" in2="effect1_dropShadow" result="shape"/>
</filter>
</defs>
</svg>
